<svg width="85" height="85" viewBox="0 0 85 85" fill="none" xmlns="http://www.w3.org/2000/svg">
<path d="M83.4436 20.1501L64.8499 1.5564C63.8538 0.560303 62.5022 0 61.0938 0H23.9062C22.4978 0 21.1462 0.560303 20.1501 1.5564L1.5564 20.1501C0.560303 21.1462 0 22.4978 0 23.9062V61.0938C0 62.5022 0.560303 63.8538 1.5564 64.8499L20.1501 83.4436C21.1462 84.4397 22.4978 85 23.9062 85H61.0938C62.5022 85 63.8538 84.4397 64.8499 83.4436L83.4436 64.8499C84.4397 63.8538 85 62.5022 85 61.0938V23.9062C85 22.4978 84.4397 21.1462 83.4436 20.1501ZM61.0938 39.8431V58.4368C61.0938 64.3052 55.4057 69.0625 49.5376 69.0625H41.8087C36.7776 69.0625 32.1791 66.2201 29.9295 61.7205L28.2874 58.437L21.51 42.6227C20.8414 41.0618 21.5048 39.2504 23.0229 38.4911C24.5021 37.7518 26.766 38.2576 27.6421 39.6596L31.875 45.6867V39.8431V18.5931C31.875 17.1262 33.0643 15.9368 34.5312 15.9368C35.9982 15.9368 37.1875 17.1262 37.1875 18.5931V38.515C37.1875 39.2484 37.7822 39.8431 38.5156 39.8431C39.2491 39.8431 39.8438 39.2484 39.8438 38.515V13.2806C39.8438 11.8137 41.0331 10.6243 42.5 10.6243C43.9669 10.6243 45.1562 11.8137 45.1562 13.2806V38.515C45.1562 39.2484 45.7509 39.8431 46.4844 39.8431C47.2178 39.8431 47.8125 39.2484 47.8125 38.515V18.5931C47.8125 17.1262 49.0018 15.9368 50.4688 15.9368C51.9357 15.9368 53.125 17.1262 53.125 18.5931V39.8431V41.1712C53.125 41.9047 53.7197 42.4993 54.4531 42.4993C55.1866 42.4993 55.7812 41.9047 55.7812 41.1712V39.8431V26.5618C55.7812 25.0949 56.9706 23.9056 58.4375 23.9056C59.9044 23.9056 61.0938 25.0949 61.0938 26.5618V39.8431Z" fill="#D80E0E"/>
</svg>
