<svg width="32" height="20" viewBox="0 0 32 20" fill="none" xmlns="http://www.w3.org/2000/svg">
<path d="M32 18.9335C32 19.5225 31.5225 20 30.9335 20H1.067C0.4775 20 0 19.5225 0 18.9335V1.067C0 0.4775 0.4775 0 1.067 0H30.9338C31.5225 0 32 0.4775 32 1.067V18.9335Z" fill="#F9F9FA"/>
<path d="M14.7256 13.0045H13.1631L14.1399 7.00001H15.7031L14.7256 13.0045ZM11.8474 7.00001L10.3574 11.13L10.1811 10.2405L9.65489 7.54051C9.65489 7.54051 9.59164 7.00001 8.91339 7.00001H6.44989L6.42114 7.10176C6.42114 7.10176 7.17464 7.25826 8.05664 7.78801L9.41464 13.0043H11.0429L13.5299 7.00001H11.8474ZM24.1434 13.0045H25.5784L24.3274 7.00001H23.0706C22.4906 7.00001 22.3489 7.44751 22.3489 7.44751L20.0179 13.0045H21.6471L21.9729 12.1128H23.9599L24.1434 13.0048V13.0045ZM22.4234 10.8805L23.2444 8.63301L23.7069 10.8805H22.4231H22.4234ZM20.1399 8.44376L20.3631 7.15426C20.3631 7.15426 19.6744 6.89276 18.9571 6.89276C18.1809 6.89276 16.3386 7.23201 16.3386 8.88026C16.3386 10.4318 18.5011 10.4513 18.5011 11.2653C18.5011 12.0803 16.5619 11.9348 15.9211 11.4208L15.6886 12.7688C15.6886 12.7688 16.3869 13.1078 17.4536 13.1078C18.5201 13.1078 20.1299 12.5553 20.1299 11.0523C20.1299 9.49126 17.9486 9.34576 17.9486 8.66726C17.9486 7.98826 19.4711 8.07551 20.1396 8.44401L20.1399 8.44376Z" fill="#0A67B2"/>
<path d="M10.1811 10.2408L9.65489 7.54075C9.65489 7.54075 9.59164 7 8.91339 7H6.44989L6.42114 7.10175C6.42114 7.10175 7.60539 7.34725 8.74114 8.26675C9.82739 9.1455 10.1811 10.2408 10.1811 10.2408Z" fill="#FAA634"/>
</svg>
