<svg width="32" height="20" viewBox="0 0 32 20" fill="none" xmlns="http://www.w3.org/2000/svg">
<path fill-rule="evenodd" clip-rule="evenodd" d="M32 18.9335C32 19.0736 31.9724 19.2123 31.9188 19.3417C31.8651 19.4712 31.7865 19.5888 31.6875 19.6878C31.5884 19.7868 31.4707 19.8654 31.3413 19.919C31.2118 19.9725 31.0731 20.0001 30.933 20H1.0665C0.926436 20 0.787738 19.9725 0.658329 19.9189C0.528921 19.8653 0.411338 19.7867 0.312297 19.6877C0.213257 19.5887 0.134701 19.4711 0.0811156 19.3417C0.0275306 19.2123 -3.28149e-05 19.0736 2.93179e-08 18.9335V1.0675C2.93179e-08 0.4775 0.4775 0 1.0665 0H30.9333C31.0734 -3.46388e-08 31.2122 0.0276171 31.3417 0.0812732C31.4711 0.134929 31.5888 0.213573 31.6878 0.312709C31.7869 0.411845 31.8654 0.529531 31.919 0.659042C31.9726 0.788553 32.0001 0.927349 32 1.0675V18.9335Z" fill="#000066"/>
<path fill-rule="evenodd" clip-rule="evenodd" d="M25.4699 11.7195V11.5052H25.4147L25.3509 11.6527L25.2872 11.5052H25.2317V11.7195H25.2709V11.558L25.3307 11.6972H25.3712L25.4312 11.5575V11.7195H25.4702H25.4699ZM25.1189 11.7195V11.542H25.1899V11.5057H25.0092V11.5417H25.0802V11.7195H25.1189ZM25.4812 8.53524C25.4812 11.8495 22.8232 14.5362 19.5444 14.5362C16.2657 14.5362 13.6077 11.8495 13.6077 8.53524C13.6077 5.22099 16.2657 2.53424 19.5444 2.53424C22.8232 2.53424 25.4812 5.22099 25.4812 8.53524Z" fill="#F79F1A"/>
<path fill-rule="evenodd" clip-rule="evenodd" d="M18.1574 8.53524C18.1574 11.8495 15.4994 14.5362 12.2207 14.5362C8.94194 14.5362 6.28394 11.8495 6.28394 8.53524C6.28394 5.22099 8.94194 2.53424 12.2207 2.53424C15.4994 2.53424 18.1574 5.22099 18.1574 8.53524Z" fill="#EA001B"/>
<path fill-rule="evenodd" clip-rule="evenodd" d="M15.8824 3.81125C15.1713 4.37576 14.5973 5.094 14.2034 5.91207C13.8095 6.73014 13.606 7.6268 13.6082 8.53475C13.606 9.44294 13.8095 10.3398 14.2034 11.1582C14.5973 11.9765 15.1714 12.695 15.8827 13.2598C16.5939 12.695 17.1679 11.9764 17.5618 11.1581C17.9557 10.3398 18.1591 9.44292 18.1569 8.53475C18.1591 7.6268 17.9556 6.73014 17.5617 5.91207C17.1678 5.094 16.5938 4.37576 15.8827 3.81125H15.8824Z" fill="#FF5F01"/>
<path fill-rule="evenodd" clip-rule="evenodd" d="M25.2421 17.2875C25.199 17.2872 25.1575 17.304 25.1268 17.3343C25.1119 17.349 25.1001 17.3666 25.092 17.3859C25.0839 17.4053 25.0797 17.426 25.0797 17.447C25.0797 17.468 25.0839 17.4887 25.092 17.5081C25.1001 17.5275 25.1119 17.545 25.1268 17.5598C25.1495 17.582 25.1781 17.597 25.2092 17.6032C25.2403 17.6093 25.2725 17.6062 25.3019 17.5942C25.3313 17.5823 25.3565 17.562 25.3745 17.5359C25.3924 17.5098 25.4024 17.479 25.4031 17.4473C25.4027 17.4047 25.3856 17.3641 25.3555 17.3341C25.3253 17.3042 25.2846 17.2873 25.2421 17.2873V17.2875ZM25.2421 17.5718C25.2257 17.5719 25.2095 17.5687 25.1944 17.5625C25.1793 17.5562 25.1656 17.5471 25.1541 17.5355C25.1426 17.5239 25.1335 17.5101 25.1273 17.495C25.1212 17.4798 25.1181 17.4636 25.1183 17.4473C25.1173 17.4304 25.1196 17.4136 25.1253 17.3977C25.131 17.3819 25.1399 17.3674 25.1514 17.3551C25.163 17.3428 25.1769 17.333 25.1924 17.3263C25.2078 17.3196 25.2245 17.3162 25.2413 17.3162C25.2582 17.3162 25.2748 17.3196 25.2903 17.3263C25.3058 17.333 25.3197 17.3428 25.3312 17.3551C25.3427 17.3674 25.3516 17.3819 25.3573 17.3977C25.363 17.4136 25.3654 17.4304 25.3643 17.4473C25.3644 17.4801 25.3516 17.5117 25.3286 17.5353C25.3173 17.5468 25.3039 17.556 25.289 17.5623C25.2742 17.5685 25.2582 17.5718 25.2421 17.5718ZM25.2513 17.3723H25.1833V17.5208H25.2148V17.4653H25.2293L25.2738 17.5208H25.3113L25.2633 17.4648C25.2763 17.4639 25.2886 17.4587 25.2983 17.45C25.3023 17.446 25.3054 17.4413 25.3075 17.4361C25.3095 17.4309 25.3105 17.4253 25.3103 17.4198C25.3106 17.4132 25.3094 17.4067 25.3067 17.4007C25.3041 17.3947 25.3001 17.3895 25.2951 17.3853C25.2824 17.376 25.267 17.3714 25.2513 17.3723ZM25.2511 17.4003C25.2593 17.4003 25.2661 17.4018 25.2708 17.4053C25.2758 17.4085 25.2781 17.4133 25.2783 17.4198C25.2781 17.4265 25.2758 17.4315 25.2708 17.4348C25.2648 17.4384 25.2579 17.4402 25.2508 17.4398H25.2148V17.4H25.2511V17.4003ZM7.60483 17.505H7.26758V15.9187H7.59783V16.1122C7.59783 16.1122 7.88783 15.876 8.06033 15.8787C8.39533 15.8845 8.59533 16.172 8.59533 16.172C8.59533 16.172 8.75783 15.8787 9.12383 15.8787C9.66533 15.8787 9.74458 16.3787 9.74458 16.3787V17.4983H9.42108V16.512C9.42108 16.512 9.42208 16.212 9.07108 16.212C8.70758 16.212 8.67458 16.512 8.67458 16.512V17.4983H8.33783V16.5053C8.33783 16.5053 8.30533 16.192 8.00083 16.192C7.60533 16.192 7.59783 16.512 7.59783 16.512L7.60458 17.505H7.60483ZM17.8496 15.8787C17.6773 15.8757 17.3873 16.112 17.3873 16.112V15.919H17.0568V17.5048H17.3938L17.3873 16.512C17.3873 16.512 17.3948 16.1928 17.7903 16.1928C17.8638 16.1928 17.9208 16.2108 17.9658 16.2383V16.237L18.0758 15.9282C18.0043 15.8972 17.9275 15.8804 17.8496 15.8787ZM22.5951 15.8787C22.4228 15.8757 22.1328 16.112 22.1328 16.112V15.919H21.8026V17.5048H22.1396L22.1331 16.512C22.1331 16.512 22.1406 16.1928 22.5361 16.1928C22.6096 16.1928 22.6666 16.2108 22.7118 16.2383V16.237L22.8216 15.9282C22.7502 15.8973 22.6734 15.8804 22.5956 15.8787H22.5951ZM10.8343 15.8722C10.3301 15.8722 10.0633 16.3293 10.0618 16.7113C10.0606 17.1028 10.3656 17.5543 10.8483 17.5543C11.1301 17.5543 11.3616 17.3445 11.3616 17.3445L11.3608 17.5063H11.6926V15.9185H11.3596V16.1185C11.3596 16.1185 11.1423 15.8722 10.8343 15.8722ZM10.8988 16.1952C11.1696 16.1952 11.3896 16.433 11.3896 16.7258C11.3896 17.0183 11.1696 17.2548 10.8988 17.2548C10.6278 17.2548 10.4093 17.0183 10.4093 16.7258C10.4093 16.4333 10.6278 16.1952 10.8988 16.1952ZM20.5048 15.8722C20.0006 15.8722 19.7338 16.3293 19.7323 16.7113C19.7311 17.1028 20.0361 17.5543 20.5188 17.5543C20.8006 17.5543 21.0321 17.3445 21.0321 17.3445L21.0313 17.5063H21.3628V15.9185H21.0303V16.1185C21.0303 16.1185 20.8128 15.8722 20.5048 15.8722ZM20.5693 16.1952C20.8401 16.1952 21.0601 16.433 21.0601 16.7258C21.0601 17.0183 20.8401 17.2548 20.5693 17.2548C20.2983 17.2548 20.0798 17.0183 20.0798 16.7258C20.0798 16.4333 20.2983 16.1952 20.5693 16.1952ZM23.6886 15.8722C23.1843 15.8722 22.9176 16.3293 22.9161 16.7113C22.9148 17.1028 23.2201 17.5543 23.7028 17.5543C23.9843 17.5543 24.2158 17.3445 24.2158 17.3445L24.2153 17.5063H24.5468V15.2917H24.2141V16.1185C24.2141 16.1185 23.9966 15.8722 23.6886 15.8722ZM23.7531 16.1952C24.0241 16.1952 24.2438 16.433 24.2438 16.7258C24.2438 17.0183 24.0238 17.2548 23.7531 17.2548C23.4823 17.2548 23.2636 17.0183 23.2636 16.7258C23.2636 16.4333 23.4823 16.1952 23.7531 16.1952ZM12.7043 17.5583C12.3608 17.5583 12.0436 17.345 12.0436 17.345L12.1891 17.1185C12.1891 17.1185 12.4891 17.2585 12.7041 17.2585C12.8441 17.2585 13.0778 17.2128 13.0808 17.0718C13.0838 16.9228 12.6876 16.8785 12.6876 16.8785C12.6876 16.8785 12.0966 16.8705 12.0966 16.3785C12.0966 16.0695 12.3916 15.8722 12.7703 15.8722C12.9891 15.8722 13.3978 16.0655 13.3978 16.0655L13.2328 16.3255C13.2328 16.3255 12.9171 16.198 12.7503 16.192C12.6098 16.187 12.4401 16.255 12.4401 16.3787C12.4401 16.715 13.4243 16.3525 13.4243 17.0318C13.4243 17.4775 13.0233 17.5583 12.7043 17.5583ZM13.9713 15.459V15.9202H13.6781V16.254H13.9713V17.0515C13.9713 17.0515 13.9453 17.5908 14.5201 17.5908C14.6791 17.5908 14.9901 17.4723 14.9901 17.4723L14.8573 17.1258C14.8573 17.1258 14.7336 17.2323 14.5938 17.2285C14.3281 17.2218 14.3356 17.05 14.3356 17.05V16.254H14.8831V15.92H14.3356V15.4587H13.9713V15.459ZM15.9666 15.8917C15.4261 15.8917 15.1561 16.341 15.1581 16.7307C15.1606 17.1318 15.4041 17.5833 15.9991 17.5833C16.2536 17.5833 16.6111 17.3575 16.6111 17.3575L16.4573 17.0878C16.4573 17.0878 16.2133 17.2625 15.9991 17.2625C15.5696 17.2625 15.5416 16.839 15.5416 16.839H16.6913C16.6913 16.839 16.7771 15.8915 15.9666 15.8915V15.8917ZM15.9176 16.203C15.9303 16.2025 15.9441 16.203 15.9576 16.203C16.3621 16.203 16.3593 16.5888 16.3593 16.5888H15.5418C15.5418 16.5888 15.5223 16.2257 15.9176 16.203ZM19.3858 17.0838L19.5398 17.3948C19.5398 17.3948 19.2956 17.555 19.0213 17.555C18.4538 17.555 18.1388 17.124 18.1388 16.7163C18.1388 16.0752 18.6401 15.8867 18.9793 15.8867C19.2873 15.8867 19.5538 16.066 19.5538 16.066L19.3811 16.377C19.3811 16.377 19.2761 16.212 18.9701 16.212C18.6643 16.212 18.5028 16.478 18.5028 16.7303C18.5028 17.0133 18.6908 17.2535 18.9746 17.2535C19.1973 17.2535 19.3858 17.0838 19.3858 17.0838Z" fill="white"/>
</svg>
