<svg width="32" height="20" viewBox="0 0 32 20" fill="none" xmlns="http://www.w3.org/2000/svg">
<path d="M32 18.9333C32 19.5223 31.5225 20 30.933 20H1.0665C0.4775 20 0 19.5225 0 18.9333V1.06625C0 0.4775 0.4775 0 1.0665 0H30.9333C31.5225 0 32 0.4775 32 1.06625V18.9333Z" fill="#0078A9"/>
<path d="M9.92855 9.53425V9.21425L9.77555 9.53425H8.45055L8.28405 9.191V9.53425H5.80755L5.51505 8.84175H5.0188L4.7088 9.53425H3.42505V7.4435L4.36605 5.314H6.16855L6.42155 5.9175V5.3185H8.62555L9.11055 6.3345L9.58455 5.314H16.5426C16.5426 5.314 16.9075 5.309 17.1475 5.478L17.1461 5.314H18.8991V5.54475C18.8991 5.54475 19.2146 5.31375 19.6806 5.31375H22.7738L23.0453 5.92625V5.31375H25.0278L25.3878 5.92625V5.31375H27.2828V9.53825H25.3358L24.8783 8.80175V9.53425H22.4583L22.1183 8.77975H21.6441L21.3251 9.5345H19.8601C19.8601 9.5345 19.314 9.52775 18.9045 9.2345V9.5345H15.9891V8.549C15.9891 8.406 15.8796 8.416 15.8796 8.416H15.7728V9.53475H9.9288L9.92855 9.53425ZM8.47355 10.449H12.3043L12.8575 11.075L13.423 10.449H16.3681C16.3681 10.449 16.6448 10.456 16.9075 10.5965V10.449H19.5301C19.8633 10.449 20.1426 10.6155 20.1426 10.6155V10.449H23.5141V10.6025C23.5141 10.6025 23.7541 10.449 24.0771 10.449H26.2736V10.6025C26.2736 10.6025 26.5501 10.449 26.8426 10.449H28.5671V14.43C28.5671 14.43 28.3403 14.6865 27.8713 14.6865H25.5976V14.56C25.5976 14.56 25.3816 14.6865 25.0516 14.6865H19.0115V13.6575C19.0115 13.5565 18.9678 13.538 18.8778 13.538H18.7953V14.6865H16.9078V13.545C16.9078 13.545 16.6983 13.6575 16.3488 13.6575H15.6701V14.6865H13.3425L12.8135 14.0408L12.2473 14.6865H8.4738V10.449H8.47355Z" fill="white"/>
<path d="M20.5474 11.0845H22.9517V11.7295H21.2834V12.2913H22.9047V12.8595H21.2832V13.4508H22.9514V14.0795H20.5474V11.0845ZM27.5962 12.2515C28.4994 12.2975 28.5752 12.749 28.5752 13.2305C28.5752 13.7915 28.1139 14.093 27.6327 14.093H26.0882V13.4505H27.2914C27.4954 13.4505 27.7997 13.4505 27.7997 13.1635C27.7997 13.0268 27.7462 12.9395 27.5289 12.9168C27.4322 12.9028 27.0752 12.883 27.0207 12.8818C26.2044 12.8605 26.0144 12.4543 26.0144 11.96C26.0144 11.3985 26.4089 11.0913 26.8909 11.0913H28.4352V11.733H27.3052C27.0477 11.7355 26.7702 11.703 26.7702 11.993C26.7702 12.177 26.9072 12.214 27.0809 12.2305C27.1409 12.231 27.5424 12.252 27.5964 12.2515H27.5962ZM24.8274 12.2515C25.7309 12.2975 25.8069 12.749 25.8069 13.2305C25.8069 13.7915 25.3459 14.093 24.8644 14.093H23.3199V13.4505H24.5232C24.7269 13.4505 25.0314 13.4505 25.0314 13.1635C25.0314 13.0268 24.9774 12.9395 24.7604 12.9168C24.6637 12.9028 24.3059 12.883 24.2529 12.8818C23.4354 12.8605 23.2467 12.4543 23.2467 11.96C23.2467 11.3985 23.6407 11.0913 24.1222 11.0913H25.6662V11.733H24.5362C24.2787 11.7355 24.0012 11.703 24.0012 11.993C24.0012 12.177 24.1387 12.214 24.3127 12.2305C24.3727 12.231 24.7737 12.252 24.8269 12.2515H24.8274ZM16.1082 11.0908H13.5274L12.6849 12.0203L11.8694 11.0848H8.97117V14.0798H11.7757L12.6582 13.0905L13.5207 14.0873H14.9317V13.07H15.9207C16.3019 13.07 16.9977 13.0568 16.9977 12.007C16.9977 11.2578 16.4697 11.0908 16.1084 11.0908H16.1082ZM11.3917 13.4508H9.69593V12.8595H11.3179V12.2915H9.69593V11.7295L11.4844 11.7335L12.2002 12.5485L11.3919 13.451L11.3917 13.4508ZM14.2024 13.7983L13.1462 12.5483L14.2024 11.3783V13.7983ZM15.8604 12.4528H14.9444V11.734H15.8634C16.1709 11.734 16.2684 11.9315 16.2684 12.0783C16.2684 12.279 16.1609 12.4533 15.8604 12.4533V12.4528ZM19.6604 12.7225C20.0619 12.522 20.1687 12.2545 20.1687 11.8933C20.1687 11.252 19.6474 11.0915 19.2862 11.0915H17.3744V14.0865H18.1099V13.03H19.0724C19.3269 13.03 19.4269 13.284 19.4332 13.538L19.4527 14.0865H20.1689L20.1422 13.471C20.1422 12.9893 20.0089 12.7623 19.6607 12.7223L19.6604 12.7225ZM19.0254 12.4125H18.1099V11.7335H19.0284C19.3359 11.7335 19.4329 11.931 19.4329 12.0778C19.4329 12.2785 19.3267 12.4128 19.0254 12.4128V12.4125ZM17.6687 5.91351H18.4042V8.91251H17.6687V5.91351ZM11.6489 5.91751H14.0522V6.56201H12.3842V7.12401H14.0049V7.69226H12.3849V8.28326H14.0524V8.91201H11.6494L11.6489 5.91751ZM16.7754 7.54801C17.1769 7.34801 17.2837 7.08001 17.2837 6.71901C17.2837 6.07726 16.7619 5.91726 16.4012 5.91726H14.4887V8.91226H15.2242V7.85551H16.1867C16.4412 7.85551 16.5417 8.10926 16.5482 8.36301L16.5682 8.91176H17.2837L17.2572 8.29626C17.2567 7.81551 17.1227 7.58826 16.7752 7.54776L16.7754 7.54801ZM16.1399 7.23801H15.2242V6.55951H16.1437C16.4507 6.55951 16.5482 6.75701 16.5482 6.90376C16.5482 7.10451 16.4407 7.23801 16.1399 7.23801ZM9.95243 5.91751L9.04993 7.92626L8.15068 5.91726H6.99818V8.80151L5.71393 5.91751H4.74068L3.43018 8.91251H4.20593L4.49293 8.24351H5.96043L6.25168 8.91226H7.73218V6.68876L8.71543 8.91201H9.38417L10.3902 6.72526V8.91176H11.1252V5.91751H9.95268H9.95243ZM4.77143 7.59751L5.21018 6.55051L5.66718 7.59751H4.77168H4.77143ZM25.9924 5.91576V7.98951L24.7524 5.91576H23.6657V8.72826L22.4124 5.91751H21.4399L20.4269 8.23751C20.4269 8.23751 19.9989 8.23751 19.9554 8.22676C19.7787 8.19026 19.5017 8.06526 19.4979 7.53676V7.31976C19.4979 6.61726 19.8792 6.56601 20.3679 6.56601H20.8219V5.91526H19.8619C19.5269 5.91526 18.7994 6.17026 18.7752 7.40026C18.7582 8.22951 19.1194 8.91326 19.9352 8.91326H20.9047L21.1917 8.24451H22.6592L22.9502 8.91301H24.4012V6.72001L25.7247 8.91351H26.7277V5.91601H25.9927L25.9924 5.91576ZM21.4754 7.59901L21.9134 6.55201L22.3749 7.59901H21.4754Z" fill="#0078A9"/>
</svg>
