<svg width="32" height="20" viewBox="0 0 32 20" fill="none" xmlns="http://www.w3.org/2000/svg">
<path d="M32 18.933C32 19.5218 31.5225 20 30.9333 20H1.0665C0.4775 20 0 19.522 0 18.933V1.067C0 0.477 0.4775 0 1.0665 0H30.9335C31.5225 0 32 0.4775 32 1.067V18.933Z" fill="#F9F9FA"/>
<path d="M21.5701 10.679C21.6091 11.8445 21.6481 13.049 21.5896 14.234C21.5508 14.7003 21.2596 15.147 20.8321 15.419C20.5021 15.6328 20.0936 15.6525 19.6663 15.6715L18.1218 15.6525L18.1118 5.76376C18.1901 5.10301 18.6758 4.54001 19.2973 4.36501C20.0543 4.26751 20.7543 4.30676 21.5506 4.28751L21.5893 4.79251V10.4068L21.5698 10.4263V10.6788L21.5701 10.679Z" fill="#03A550"/>
<path d="M10.3799 10.31V5.64751C10.4774 5.12251 10.9049 4.63751 11.4099 4.44301C12.1674 4.20951 13.0416 4.34626 13.8184 4.32551C13.8571 5.08401 13.8184 6.03601 13.8384 6.69651L13.8771 12.7765C13.7791 13.709 14.1296 14.972 12.9634 15.4965C12.2259 15.8655 11.2344 15.6328 10.3991 15.7105L10.3799 15.5745V10.31Z" fill="#0C72BA"/>
<path d="M10.3799 10.504C10.6906 10.9123 11.1184 11.2225 11.6429 11.242C12.2839 11.3008 13.1194 11.3588 13.5464 10.757C13.8381 10.4458 13.6634 10.0188 13.7214 9.61075L13.7024 8.87225C13.3331 8.79425 13.0024 8.87225 12.5749 8.85225C12.3616 9.64975 12.9249 10.5428 12.0119 10.951C11.7981 11.0093 11.4869 10.9705 11.2736 10.8343C10.9241 10.7568 11.1186 10.1933 10.6521 10.3485L10.3796 10.3103V10.5038L10.3799 10.504Z" fill="white"/>
<path d="M17.7041 4.96749L17.7236 14.4285C17.5878 14.875 17.2378 15.361 16.7523 15.536C16.0138 15.788 15.1006 15.6717 14.2848 15.6717L14.2458 5.70549C14.2848 5.23924 14.5958 4.83174 15.0033 4.57899C15.2951 4.38474 15.6446 4.32574 16.0138 4.30649H17.6651L17.7041 4.96749Z" fill="#EB2227"/>
<path d="M17.5488 8.87199C17.5878 8.98874 17.5488 9.08574 17.5683 9.22199C16.9858 9.06624 16.2666 8.89149 15.7418 9.31899C15.5481 9.55149 15.4311 9.78524 15.4506 10.0957C15.5091 10.4452 15.7231 10.7757 16.0531 10.912C16.5581 11.0675 17.0823 10.9312 17.5486 10.8145C17.5681 10.912 17.5876 11.0475 17.5486 11.125H15.3141C14.9258 11.0475 14.6151 10.834 14.4403 10.445C14.2853 10.076 14.3628 9.57149 14.6346 9.26049C14.8678 8.98849 15.1981 8.83299 15.5671 8.85224L17.5491 8.87174L17.5488 8.87199ZM21.5701 10.679C21.5121 10.9122 21.3176 11.1252 21.0846 11.164H18.3646L18.2678 11.1252C18.2678 10.3487 18.2483 9.61074 18.2878 8.85274H20.0161C20.5601 8.91099 21.1623 8.67774 21.4153 9.18324C21.4928 9.35824 21.4733 9.59124 21.3373 9.72724C21.2598 9.86299 21.0848 9.88274 21.0461 9.97974C21.2598 10.0377 21.4926 10.2127 21.5706 10.4265V10.679H21.5701ZM19.2388 9.08599C19.1808 9.29924 19.1808 9.59099 19.2196 9.82349C19.6278 9.80499 20.1521 9.95999 20.4238 9.64949C20.5213 9.53199 20.4628 9.33849 20.4043 9.24074C20.0936 8.96924 19.6278 9.14399 19.2388 9.08574V9.08599ZM20.2883 10.1542C19.9193 10.096 19.5498 10.1152 19.2003 10.1347C19.1811 10.426 19.2003 10.6592 19.2391 10.9312C19.6281 10.9312 20.0551 10.9887 20.4046 10.8142C20.5021 10.7175 20.5601 10.5617 20.5221 10.426C20.5021 10.3097 20.4046 10.2122 20.2886 10.154L20.2883 10.1542Z" fill="white"/>
</svg>
