<svg width="32" height="20" viewBox="0 0 32 20" fill="none" xmlns="http://www.w3.org/2000/svg">
<g clip-path="url(#clip0_977_248)">
<path d="M32 18.933C32 19.522 31.5225 20 30.933 20H1.0665C0.4775 20 0 19.5225 0 18.933V1.067C0 0.477 0.4775 0 1.0665 0H30.9333C31.5225 0 32 0.4775 32 1.067V18.933Z" fill="#F2F2F2"/>
<path d="M8.7959 20H30.9334C31.5222 20 32.0002 19.5225 32.0002 18.933V11.4445C29.8749 12.7915 21.8649 17.4345 8.79615 20H8.7959Z" fill="#F58220"/>
<path d="M16.3907 8.4425C15.509 8.4425 14.7937 9.13151 14.7937 9.98151C14.7937 10.8853 15.4772 11.5605 16.3907 11.5605C17.2802 11.5605 17.9827 10.8763 17.9827 9.99876C17.9832 9.12726 17.2852 8.44275 16.391 8.44275L16.3907 8.4425Z" fill="url(#paint0_radial_977_248)"/>
<path d="M7.32456 8.49849H6.46631V11.4935H7.32056C7.77356 11.4935 8.10131 11.3855 8.38881 11.148C8.72981 10.8642 8.93206 10.438 8.93206 9.99724C8.93206 9.11299 8.27206 8.49824 7.32456 8.49824V8.49849ZM8.00756 10.7477C7.82256 10.9142 7.58556 10.986 7.20756 10.986H7.05006V9.00599H7.20756C7.58556 9.00599 7.81381 9.07349 8.00756 9.24799C8.20956 9.42799 8.32956 9.70624 8.32956 9.99299C8.32956 10.2812 8.20956 10.5692 8.00756 10.748V10.7477ZM9.20156 8.49849H9.78456V11.4935H9.20156V8.49849ZM11.2131 9.64699C10.8623 9.51699 10.7598 9.43199 10.7598 9.27024C10.7598 9.08224 10.9433 8.93874 11.1948 8.93874C11.3698 8.93874 11.5133 9.01049 11.6668 9.18049L11.9718 8.78199C11.7203 8.56124 11.4193 8.44899 11.0913 8.44899C10.5621 8.44899 10.1576 8.81749 10.1576 9.30649C10.1576 9.72024 10.3463 9.93099 10.8943 10.1285C11.1236 10.209 11.2401 10.263 11.2983 10.2995C11.4151 10.3762 11.4733 10.4832 11.4733 10.6087C11.4733 10.852 11.2808 11.0312 11.0198 11.0312C10.7411 11.0312 10.5168 10.8925 10.3823 10.6317L10.0056 10.996C10.2741 11.391 10.5973 11.566 11.0423 11.566C11.6483 11.566 12.0748 11.1615 12.0748 10.5822C12.0748 10.1065 11.8783 9.89074 11.2128 9.64724L11.2131 9.64699ZM12.2591 9.99749C12.2591 10.878 12.9508 11.5605 13.8401 11.5605C14.0918 11.5605 14.3071 11.5112 14.5721 11.3855V10.6985C14.3383 10.9322 14.1316 11.026 13.8671 11.026C13.2791 11.026 12.8613 10.5992 12.8613 9.99299C12.8613 9.41874 13.2918 8.96499 13.8403 8.96499C14.1186 8.96499 14.3298 9.06399 14.5728 9.30199V8.61449C14.3171 8.48449 14.1053 8.43149 13.8541 8.43149C12.9691 8.43149 12.2591 9.12724 12.2591 9.99724V9.99749ZM19.3046 10.51L18.5056 8.49849H17.8676L19.1391 11.5697H19.4528L20.7468 8.49824H20.1143L19.3046 10.51ZM21.0126 11.4932H22.6686V10.9857H21.5951V10.1775H22.6276V9.66999H21.5951V9.00499H22.6686V8.49799H21.0126V11.4932ZM24.9806 9.38249C24.9806 8.82124 24.5948 8.49849 23.9213 8.49849H23.0543V11.4935H23.6388V10.29H23.7151L24.5233 11.4932H25.2413L24.2981 10.2315C24.7381 10.1415 24.9806 9.84074 24.9806 9.38224V9.38249ZM23.8086 9.87674H23.6386V8.96924H23.8181C24.1821 8.96924 24.3796 9.12274 24.3796 9.41374C24.3796 9.71474 24.1821 9.87674 23.8086 9.87674Z" fill="#081A23"/>
<path d="M25.3925 8.72175C25.3925 8.66925 25.357 8.6405 25.293 8.6405H25.208V8.90475H25.271V8.80225L25.3443 8.90475H25.423L25.335 8.79525C25.372 8.78525 25.3925 8.75825 25.3925 8.7215V8.72175ZM25.282 8.7575H25.271V8.68925H25.2825C25.3145 8.68925 25.33 8.70025 25.33 8.72275C25.33 8.74575 25.314 8.75775 25.282 8.75775V8.7575Z" fill="#231F20"/>
<path d="M25.3059 8.54126C25.1777 8.54126 25.0759 8.64376 25.0759 8.77201C25.0759 8.89951 25.1784 9.00201 25.3059 9.00201C25.4309 9.00201 25.5334 8.89851 25.5334 8.77201C25.5334 8.64551 25.4309 8.54126 25.3059 8.54126ZM25.3054 8.96126C25.2034 8.96126 25.1212 8.87726 25.1212 8.77251C25.1212 8.66676 25.2022 8.58301 25.3054 8.58301C25.4049 8.58301 25.4869 8.66851 25.4869 8.77251C25.4869 8.87626 25.4049 8.96101 25.3054 8.96101V8.96126Z" fill="#231F20"/>
</g>
<defs>
<radialGradient id="paint0_radial_977_248" cx="0" cy="0" r="1" gradientUnits="userSpaceOnUse" gradientTransform="translate(16.3885 10.0015) scale(1.57675 1.57675)">
<stop offset="0.006" stop-color="#FFEEE1"/>
<stop offset="0.097" stop-color="#FFEAD8"/>
<stop offset="0.245" stop-color="#FEDDC2"/>
<stop offset="0.433" stop-color="#FCCA9F"/>
<stop offset="0.652" stop-color="#F9AF72"/>
<stop offset="0.895" stop-color="#F68F39"/>
<stop offset="1" stop-color="#F48220"/>
</radialGradient>
<clipPath id="clip0_977_248">
<rect width="32" height="20" fill="white"/>
</clipPath>
</defs>
</svg>
