<svg width="32" height="20" viewBox="0 0 32 20" fill="none" xmlns="http://www.w3.org/2000/svg">
<path d="M32 18.933C32 19.5223 31.5225 20 30.933 20H1.0665C0.4775 20 0 19.5225 0 18.933V1.06675C0 0.47675 0.4775 0 1.0665 0H30.9333C31.5225 0 32 0.477 32 1.06675V18.933Z" fill="#084E94"/>
<path d="M16.765 10.9085C18.5735 10.9173 20.2238 9.43451 20.2238 7.62976C20.2238 5.65651 18.5738 4.29276 16.7653 4.29376H15.209C13.3798 4.29276 11.8735 5.65676 11.8735 7.62951C11.8735 9.43401 13.3795 10.917 15.209 10.908H16.7655L16.765 10.9085Z" fill="white"/>
<path d="M15.9032 9.38674V5.80374C16.6232 6.08049 17.1345 6.77749 17.1357 7.59549C17.1345 8.41299 16.6232 9.10974 15.9032 9.38674ZM13.2975 7.59549C13.2987 6.77799 13.8095 6.08099 14.529 5.80374V9.38624C13.8095 9.10874 13.299 8.41274 13.2972 7.59549H13.2975ZM15.216 4.56724C13.544 4.56724 12.189 5.92274 12.1885 7.59524C12.189 9.26724 13.5442 10.6222 15.216 10.6227C16.8885 10.622 18.2435 9.26699 18.244 7.59524C18.244 5.92274 16.889 4.56774 15.216 4.56699" fill="#084E94"/>
<path d="M8.49002 13.1657C8.49002 13.4352 8.68302 13.4665 8.85402 13.4665C9.60902 13.4665 9.85827 12.8965 9.85827 12.3755C9.85827 11.7215 9.43827 11.2495 8.76327 11.2495C8.62002 11.2495 8.55377 11.2595 8.49027 11.2635V13.166L8.49002 13.1657ZM8.14802 11.5258C8.14802 11.2108 7.98377 11.232 7.82627 11.2288V11.1375C7.96277 11.1445 8.10252 11.1445 8.23927 11.1445C8.38577 11.1445 8.58502 11.1375 8.84427 11.1375C9.74927 11.1375 10.2428 11.7425 10.2428 12.3617C10.2428 12.7075 10.0403 13.5785 8.80277 13.5785C8.62402 13.5785 8.45977 13.5715 8.29527 13.5715C8.13777 13.5715 7.98402 13.5752 7.82652 13.5785V13.4878C8.03652 13.4668 8.13777 13.4603 8.14827 13.222V11.526L8.14802 11.5258ZM10.7395 11.442C10.6485 11.442 10.568 11.3578 10.568 11.267C10.568 11.179 10.6523 11.0988 10.7395 11.0988C10.8303 11.0988 10.9105 11.1725 10.9105 11.2673C10.9105 11.3608 10.8338 11.4417 10.7395 11.4417V11.442ZM10.3655 13.4875H10.4318C10.53 13.4875 10.5998 13.4875 10.5998 13.372V12.4245C10.5998 12.2705 10.5473 12.2495 10.4173 12.1795V12.1235C10.5813 12.0742 10.7773 12.0085 10.7918 11.998C10.8163 11.9835 10.8368 11.9797 10.8543 11.9797C10.8718 11.9797 10.8793 12.001 10.8793 12.0288V13.3713C10.8793 13.4873 10.9558 13.4873 11.0538 13.4873H11.1138V13.578C10.9943 13.578 10.8718 13.571 10.7463 13.571C10.6203 13.571 10.4938 13.5748 10.3653 13.578V13.4875H10.3655ZM11.4455 12.445C11.4455 12.3157 11.4068 12.2813 11.243 12.215V12.1475C11.393 12.0993 11.5368 12.0535 11.7043 11.98C11.7153 11.98 11.725 11.9875 11.725 12.015V12.2425C11.925 12.0993 12.0963 11.98 12.331 11.98C12.628 11.98 12.7325 12.1968 12.7325 12.47V13.3717C12.7325 13.4875 12.81 13.4875 12.9075 13.4875H12.9708V13.5782C12.8478 13.5782 12.7253 13.5712 12.6 13.5712C12.474 13.5712 12.3485 13.575 12.2225 13.5782V13.4875H12.2845C12.383 13.4875 12.4525 13.4875 12.4525 13.3717V12.4663C12.4525 12.2668 12.331 12.1687 12.1313 12.1687C12.0198 12.1687 11.8413 12.2597 11.725 12.3372V13.3717C11.725 13.4875 11.803 13.4875 11.9005 13.4875H11.963V13.5785C11.8413 13.5785 11.7188 13.5715 11.5925 13.5715C11.467 13.5715 11.341 13.5752 11.215 13.5785V13.4878H11.2783C11.3758 13.4878 11.4458 13.4877 11.4458 13.3722V12.445H11.4455ZM13.8555 12.5015C13.943 12.5015 13.953 12.4557 13.953 12.414C13.953 12.2352 13.845 12.0922 13.6493 12.0922C13.4358 12.0922 13.2893 12.2498 13.2473 12.5013H13.8553L13.8555 12.5015ZM13.2365 12.6132C13.2295 12.645 13.2295 12.697 13.2365 12.8162C13.2573 13.1487 13.471 13.4213 13.7503 13.4213C13.9433 13.4213 14.0938 13.3163 14.2228 13.1873L14.2718 13.2355C14.1108 13.449 13.9118 13.6305 13.625 13.6305C13.0685 13.6305 12.9565 13.092 12.9565 12.868C12.9565 12.1825 13.418 11.9795 13.663 11.9795C13.9465 11.9795 14.251 12.158 14.2538 12.5288C14.2538 12.5498 14.2538 12.5705 14.2508 12.5918L14.219 12.6123H13.2365V12.6132ZM14.335 13.4875H14.429C14.5265 13.4875 14.597 13.4875 14.597 13.372V12.3895C14.597 12.281 14.4678 12.2595 14.415 12.232V12.1795C14.67 12.071 14.81 11.9795 14.842 11.9795C14.862 11.9795 14.8728 11.9908 14.8728 12.026V12.341H14.8803C14.9678 12.2042 15.1148 11.98 15.3278 11.98C15.4158 11.98 15.5273 12.0392 15.5273 12.1655C15.5273 12.26 15.461 12.344 15.363 12.344C15.2545 12.344 15.2545 12.26 15.132 12.26C15.0728 12.26 14.877 12.3407 14.877 12.5505V13.372C14.877 13.4877 14.947 13.4878 15.045 13.4878H15.24V13.5787C15.048 13.5752 14.9015 13.5717 14.751 13.5717C14.6075 13.5717 14.461 13.5755 14.335 13.5787V13.488V13.4875ZM15.6813 13.0925C15.7263 13.3232 15.8663 13.5192 16.1218 13.5192C16.328 13.5192 16.4048 13.3932 16.4048 13.2708C16.4048 12.8583 15.6428 12.9913 15.6428 12.4283C15.6428 12.232 15.7998 11.98 16.1848 11.98C16.2963 11.98 16.4465 12.0117 16.5835 12.0817L16.608 12.438H16.5273C16.4923 12.218 16.3698 12.0925 16.1463 12.0925C16.0063 12.0925 15.8738 12.1725 15.8738 12.3232C15.8738 12.7325 16.6848 12.6062 16.6848 13.155C16.6848 13.3862 16.4998 13.6307 16.0835 13.6307C15.9435 13.6307 15.779 13.582 15.657 13.512L15.6185 13.11L15.681 13.0925H15.6813ZM19.8425 11.77H19.755C19.6885 11.361 19.398 11.1967 19.0065 11.1967C18.6045 11.1967 18.02 11.4658 18.02 12.3055C18.02 13.012 18.5245 13.5192 19.0625 13.5192C19.4088 13.5192 19.6958 13.2818 19.766 12.9143L19.846 12.9347L19.766 13.4452C19.6185 13.5362 19.2235 13.6302 18.9925 13.6302C18.1745 13.6302 17.657 13.1028 17.657 12.3153C17.657 11.5985 18.297 11.0845 18.982 11.0845C19.2653 11.0845 19.5383 11.1752 19.8078 11.2695L19.8428 11.7695L19.8425 11.77ZM19.9688 13.4875H20.0353C20.1338 13.4875 20.2035 13.4875 20.2035 13.372V11.4245C20.2035 11.197 20.151 11.19 20.0175 11.1512V11.0955C20.1575 11.05 20.305 10.9872 20.378 10.9447C20.4155 10.9237 20.4445 10.9062 20.4548 10.9062C20.4755 10.9062 20.4823 10.9272 20.4823 10.955V13.3717C20.4823 13.4875 20.5598 13.4875 20.6578 13.4875H20.7165V13.5782C20.5978 13.5782 20.4753 13.5712 20.3498 13.5712C20.2235 13.5712 20.098 13.575 19.9685 13.5782V13.4878L19.9688 13.4875ZM22.214 13.3862C22.214 13.4495 22.2523 13.4525 22.3115 13.4525C22.354 13.4525 22.406 13.4495 22.452 13.4495V13.5227C22.3013 13.537 22.0145 13.6103 21.948 13.6313L21.9305 13.6208V13.3375C21.721 13.509 21.56 13.631 21.3113 13.631C21.1223 13.631 20.9263 13.509 20.9263 13.2153V12.32C20.9263 12.2295 20.913 12.1418 20.7173 12.1245V12.058C20.8423 12.0542 21.1223 12.0335 21.168 12.0335C21.2068 12.0335 21.2068 12.058 21.2068 12.1345V13.037C21.2068 13.142 21.2068 13.4425 21.5108 13.4425C21.6295 13.4425 21.7868 13.3515 21.9338 13.2292V12.2875C21.9338 12.218 21.7658 12.1795 21.6403 12.145V12.0815C21.9548 12.0605 22.1503 12.0328 22.1853 12.0328C22.2138 12.0328 22.2138 12.0577 22.2138 12.0962V13.3862H22.214ZM22.91 13.1833C22.91 13.3158 23.036 13.5402 23.27 13.5402C23.645 13.5402 23.8013 13.1727 23.8013 12.8615C23.8013 12.484 23.5148 12.169 23.2423 12.169C23.1123 12.169 23.0043 12.2532 22.9098 12.334V13.1835L22.91 13.1833ZM22.91 12.232C23.05 12.113 23.2385 11.98 23.431 11.98C23.8368 11.98 24.0815 12.3338 24.0815 12.7145C24.0815 13.1725 23.7455 13.6307 23.2458 13.6307C22.9868 13.6307 22.8508 13.5468 22.7595 13.5087L22.6545 13.5887L22.5815 13.5507C22.6125 13.3445 22.6303 13.1415 22.6303 12.9283V11.4245C22.6303 11.197 22.5778 11.19 22.4453 11.1512V11.0955C22.5853 11.05 22.7318 10.9872 22.8053 10.9447C22.8438 10.9237 22.8713 10.9062 22.8828 10.9062C22.9038 10.9062 22.9103 10.9272 22.9103 10.955V12.232H22.91ZM7.82202 15.612H7.84902C7.91702 15.612 7.98952 15.6025 7.98952 15.5033V14.5068C7.98952 14.4078 7.91702 14.3977 7.84902 14.3977H7.82202V14.341C7.89702 14.341 8.01102 14.3485 8.10452 14.3485C8.19952 14.3485 8.31352 14.341 8.40252 14.341V14.398H8.37627C8.30802 14.398 8.23527 14.408 8.23527 14.5072V15.5037C8.23527 15.6027 8.30827 15.6125 8.37652 15.6125H8.40277V15.67C8.31177 15.67 8.19777 15.662 8.10227 15.662C8.00927 15.662 7.89727 15.6695 7.82227 15.6695V15.6125L7.82202 15.612Z" fill="white"/>
<path d="M8.39446 15.661V15.6205H8.37621C8.30871 15.6205 8.22722 15.609 8.22672 15.5035V14.507C8.22722 14.402 8.30821 14.39 8.37621 14.39H8.39446V14.3492C8.30621 14.3492 8.19696 14.3567 8.10446 14.3567C8.01396 14.3567 7.90446 14.3492 7.83046 14.3492V14.39H7.84846C7.91671 14.39 7.99746 14.4017 7.99746 14.507V15.5035C7.99746 15.609 7.91671 15.6205 7.84846 15.6205H7.83046V15.661C7.90421 15.6605 8.01196 15.6535 8.10196 15.6535C8.19446 15.6535 8.30496 15.661 8.39446 15.661ZM8.40246 15.677C8.31096 15.677 8.19746 15.67 8.10196 15.67C8.00896 15.67 7.89746 15.677 7.82196 15.677H7.81446V15.6037H7.84846C7.91796 15.6022 7.98021 15.597 7.98096 15.5037V14.5075C7.98021 14.4137 7.91796 14.4082 7.84846 14.4067H7.81396V14.3325H7.82146C7.89721 14.3325 8.01071 14.34 8.10396 14.34C8.19896 14.34 8.31271 14.3325 8.40222 14.3325H8.41046V14.406H8.37597C8.30722 14.4077 8.24346 14.4135 8.24346 14.5067V15.5032C8.24346 15.5965 8.30722 15.602 8.37597 15.6032H8.41096V15.6767H8.40222L8.40246 15.677ZM9.70996 15.2942L9.71371 15.2902V14.577C9.71371 14.421 9.60546 14.398 9.54821 14.398H9.50646V14.3412C9.59546 14.3412 9.68321 14.3487 9.77296 14.3487C9.85046 14.3487 9.92896 14.3412 10.0067 14.3412V14.3982H9.97847C9.89847 14.3982 9.80896 14.4137 9.80896 14.6402V15.5062C9.80896 15.573 9.81097 15.6387 9.82047 15.6987H9.74796L8.76796 14.6062V15.3902C8.76796 15.556 8.80046 15.6127 8.94696 15.6127H8.97946V15.6702C8.89771 15.6702 8.81597 15.6627 8.73372 15.6627C8.64872 15.6627 8.56121 15.6702 8.47521 15.6702V15.6127H8.50221C8.63346 15.6127 8.67321 15.5237 8.67321 15.3712V14.57C8.67321 14.4637 8.58571 14.3987 8.50071 14.3987H8.47571V14.3417C8.54771 14.3417 8.62197 14.3492 8.69372 14.3492C8.75122 14.3492 8.80622 14.3417 8.86372 14.3417L9.71046 15.295L9.70996 15.2942Z" fill="white"/>
<path d="M9.70604 15.29L9.70404 15.288L9.70604 15.2905V15.29ZM9.71029 15.2942L9.71654 15.2887L9.71054 15.2942H9.71029ZM9.74829 15.6892H9.81154C9.80254 15.6317 9.80104 15.5692 9.80104 15.5057V14.6395C9.80104 14.412 9.89679 14.39 9.97854 14.39H9.99854V14.3492C9.92404 14.3492 9.84854 14.3567 9.77354 14.3567C9.68604 14.3567 9.60104 14.3492 9.51529 14.3492V14.39H9.54854C9.60679 14.39 9.72254 14.416 9.72254 14.5775L9.71954 15.2965L9.71554 15.3L9.70929 15.306L8.86304 14.349C8.80654 14.349 8.75154 14.3565 8.69304 14.3565C8.62379 14.3565 8.55204 14.349 8.48304 14.349V14.3897H8.49954C8.58854 14.3897 8.68104 14.4572 8.68104 14.5687V15.37C8.68104 15.5225 8.63854 15.62 8.50154 15.6205L8.48329 15.62V15.6607C8.56579 15.6602 8.65079 15.6532 8.73329 15.6532C8.81329 15.6532 8.89229 15.6602 8.97079 15.6607V15.6207H8.94654C8.79704 15.62 8.75979 15.555 8.75979 15.3892V14.5837L9.74779 15.6892H9.74829ZM9.82079 15.7057L9.74229 15.7032L8.77629 14.6265V15.389C8.77879 15.555 8.80379 15.6015 8.94729 15.6035H8.98804V15.677H8.98004C8.89754 15.677 8.81604 15.67 8.73429 15.67C8.64929 15.67 8.56179 15.677 8.47579 15.677H8.46754V15.6035H8.50254C8.62829 15.6027 8.66404 15.5225 8.66604 15.3702V14.5692C8.66554 14.4682 8.58179 14.4067 8.50054 14.4067H8.46704V14.333H8.47554C8.54804 14.333 8.62254 14.3397 8.69379 14.3397C8.75079 14.3397 8.80579 14.3327 8.87004 14.3347L9.70679 15.2772V14.5767C9.70529 14.425 9.60429 14.4072 9.54879 14.4057H9.49879V14.3325H9.50704C9.59654 14.3325 9.68454 14.3395 9.77354 14.3395C9.85104 14.3395 9.92904 14.3327 10.0073 14.3327H10.0158V14.406H9.97879C9.90004 14.4085 9.81979 14.4152 9.81754 14.6395V15.5057C9.81754 15.5725 9.81904 15.6382 9.82754 15.6962L9.83004 15.7062H9.82004L9.82079 15.7057ZM10.2925 14.436C10.1493 14.436 10.143 14.47 10.115 14.609H10.058C10.0655 14.5555 10.075 14.5025 10.0815 14.4472C10.0885 14.3935 10.0925 14.3407 10.0925 14.2855H10.138C10.1535 14.343 10.2005 14.3405 10.2525 14.3405H11.2343C11.286 14.3405 11.3335 14.3387 11.3368 14.2817L11.3828 14.2892C11.3758 14.3407 11.3678 14.3917 11.362 14.4432C11.3585 14.4947 11.3585 14.5457 11.3585 14.5972L11.301 14.6185C11.2973 14.5485 11.2878 14.4355 11.1605 14.4355H10.8488V15.448C10.8488 15.5947 10.9158 15.6115 11.0068 15.6115H11.0428V15.669C10.9688 15.669 10.8353 15.661 10.7328 15.661C10.6185 15.661 10.4853 15.6685 10.4113 15.6685V15.6115H10.4473C10.5523 15.6115 10.6053 15.602 10.6053 15.4515V14.4352H10.2928L10.2925 14.436Z" fill="white"/>
<path d="M11.0419 15.677C10.9669 15.677 10.8344 15.67 10.7319 15.67C10.6174 15.67 10.4849 15.677 10.4101 15.677H10.4021V15.6035H10.4466C10.5516 15.6015 10.5936 15.5997 10.5961 15.4525V14.4442H10.2924V14.428H10.6124V15.453C10.6124 15.6055 10.5509 15.6205 10.4461 15.621H10.4186V15.661C10.4936 15.661 10.6211 15.6535 10.7319 15.6535C10.8314 15.6535 10.9584 15.661 11.0336 15.661V15.621H11.0061C10.9136 15.621 10.8401 15.5985 10.8401 15.449V14.428H11.1606C11.2876 14.4285 11.3046 14.537 11.3086 14.6072L11.3499 14.5922C11.3499 14.5422 11.3504 14.4927 11.3539 14.4422C11.3589 14.3937 11.3659 14.3447 11.3731 14.2965L11.3444 14.2915C11.3354 14.347 11.2819 14.3495 11.2339 14.349H10.2424C10.1979 14.349 10.1491 14.347 10.1324 14.294H10.1009C10.1004 14.3465 10.0959 14.3972 10.0894 14.4477C10.0839 14.5002 10.0754 14.5502 10.0684 14.6007H10.1084C10.1341 14.4682 10.1501 14.425 10.2926 14.4272V14.4435C10.1519 14.4465 10.1546 14.4695 10.1234 14.6105L10.1224 14.617H10.0479L10.0496 14.607C10.0571 14.5535 10.0671 14.5005 10.0721 14.4452C10.0804 14.3927 10.0839 14.3397 10.0839 14.2852V14.277H10.1449L10.1459 14.2827C10.1591 14.3307 10.1941 14.331 10.2426 14.3317H11.2341C11.2874 14.3307 11.3256 14.33 11.3291 14.2802L11.3299 14.2715L11.3386 14.273L11.3924 14.2815L11.3909 14.2895C11.3834 14.3407 11.3759 14.392 11.3699 14.4427C11.3664 14.4937 11.3664 14.5447 11.3664 14.5962V14.602L11.3609 14.6045L11.2934 14.6285V14.6172C11.2876 14.5462 11.2809 14.4422 11.1609 14.4422H10.8566V15.4472C10.8581 15.5902 10.9149 15.5997 11.0061 15.6017H11.0499V15.6767H11.0419V15.677ZM11.4424 15.612H11.4699C11.5379 15.612 11.6099 15.6025 11.6099 15.5032V14.5067C11.6099 14.4077 11.5379 14.3977 11.4699 14.3977H11.4424V14.341C11.5586 14.341 11.7569 14.3485 11.9164 14.3485C12.0764 14.3485 12.2744 14.341 12.4039 14.341C12.4001 14.4222 12.4021 14.5485 12.4079 14.6317L12.3504 14.6472C12.3411 14.5237 12.3186 14.4247 12.1184 14.4247H11.8541V14.923H12.0804C12.1944 14.923 12.2194 14.8585 12.2304 14.7555H12.2879C12.2839 14.8305 12.2821 14.9042 12.2821 14.9785C12.2821 15.051 12.2839 15.1235 12.2871 15.1955L12.2304 15.2065C12.2189 15.0927 12.2136 15.0185 12.0814 15.0185H11.8539V15.4615C11.8539 15.585 11.9639 15.585 12.0854 15.585C12.3141 15.585 12.4146 15.57 12.4716 15.3532L12.5254 15.3665C12.5004 15.4675 12.4779 15.5682 12.4604 15.6695C12.3386 15.6695 12.1199 15.662 11.9489 15.662C11.7769 15.662 11.5514 15.6695 11.4421 15.6695V15.6127L11.4424 15.612Z" fill="white"/>
<path d="M12.4536 15.6607C12.4706 15.5647 12.4923 15.4682 12.5153 15.3727L12.4783 15.3637C12.4208 15.5767 12.3108 15.5957 12.0868 15.5942C11.9668 15.5942 11.8468 15.5942 11.8461 15.4622V15.011H12.0823C12.2153 15.0092 12.2288 15.0892 12.2383 15.1977L12.2796 15.189C12.2756 15.1195 12.2746 15.049 12.2746 14.979C12.2746 14.9072 12.2758 14.8365 12.2796 14.7645H12.2383C12.2278 14.8635 12.1968 14.933 12.0808 14.932H11.8458V14.417H12.1183C12.3168 14.4155 12.3493 14.517 12.3583 14.637L12.3991 14.6262C12.3961 14.5727 12.3933 14.5037 12.3933 14.4402C12.3933 14.4077 12.3938 14.3765 12.3948 14.3497C12.2658 14.3497 12.0736 14.3572 11.9166 14.3572C11.7601 14.3572 11.5676 14.3497 11.4516 14.3497V14.3905H11.4701C11.5376 14.3905 11.6186 14.4025 11.6191 14.508V15.5042C11.6186 15.6097 11.5373 15.621 11.4698 15.6217H11.4508V15.6617C11.5618 15.6617 11.7808 15.6542 11.9491 15.6542C12.1173 15.6537 12.3308 15.6612 12.4533 15.6612L12.4536 15.6607ZM12.4608 15.6775C12.3391 15.6775 12.1198 15.67 11.9493 15.67C11.7773 15.67 11.5518 15.6775 11.4426 15.6775H11.4356V15.6037H11.4701C11.5388 15.6027 11.6016 15.597 11.6021 15.5037V14.5075C11.6016 14.4145 11.5388 14.4082 11.4701 14.4067H11.4351V14.3335H11.4426C11.5593 14.3335 11.7571 14.3402 11.9166 14.3402C12.0766 14.3402 12.2746 14.3337 12.4041 14.3337H12.4123V14.3422C12.4098 14.3707 12.4098 14.4047 12.4098 14.4405C12.4098 14.5065 12.4123 14.578 12.4153 14.6325V14.6395L12.4096 14.6412L12.3421 14.6587L12.3413 14.6487C12.3303 14.5257 12.3138 14.4355 12.1176 14.4342H11.8611V14.916H12.0798C12.1898 14.915 12.2091 14.8585 12.2218 14.756L12.2228 14.7485H12.2956V14.7572C12.2923 14.8315 12.2901 14.9055 12.2901 14.9797C12.2901 15.0517 12.2926 15.124 12.2951 15.1962L12.2958 15.203L12.2891 15.2042L12.2231 15.2182L12.2226 15.2082C12.2096 15.0917 12.2086 15.0287 12.0821 15.0272H11.8621V15.4622C11.8621 15.5777 11.9621 15.5772 12.0863 15.5777C12.3151 15.5762 12.4073 15.5652 12.4646 15.3517L12.4666 15.3442L12.4741 15.3457L12.5353 15.3607L12.5336 15.369C12.5091 15.469 12.4861 15.5705 12.4693 15.6715L12.4676 15.6775H12.4613H12.4608ZM13.0256 14.9837H13.1193C13.3098 14.9837 13.4118 14.912 13.4118 14.6872C13.4118 14.5172 13.3043 14.4097 13.1343 14.4097C13.0768 14.4097 13.0528 14.4147 13.0256 14.4167V14.9835V14.9837ZM12.7826 14.5425C12.7826 14.4037 12.7063 14.398 12.6471 14.398H12.6131V14.341C12.6738 14.341 12.7916 14.3485 12.9081 14.3485C13.0223 14.3485 13.1136 14.341 13.2143 14.341C13.4543 14.341 13.6676 14.4052 13.6676 14.676C13.6676 14.847 13.5531 14.9517 13.4026 15.011L13.7283 15.498C13.7818 15.578 13.8196 15.6005 13.9133 15.612V15.6695C13.8498 15.6695 13.7891 15.6615 13.7263 15.6615C13.6676 15.6615 13.6063 15.669 13.5473 15.669C13.4006 15.4765 13.2748 15.2715 13.1516 15.0522H13.0253V15.4597C13.0253 15.6062 13.0941 15.6115 13.1813 15.6115H13.2158V15.669C13.1076 15.669 12.9976 15.661 12.8888 15.661C12.7973 15.661 12.7078 15.6685 12.6128 15.6685V15.6115H12.6468C12.7181 15.6115 12.7823 15.579 12.7823 15.509V14.5425H12.7826Z" fill="white"/>
<path d="M13.1193 14.9757C13.3078 14.974 13.4023 14.9082 13.4043 14.6875C13.4028 14.5212 13.2998 14.4182 13.1343 14.4175C13.083 14.4175 13.0585 14.4225 13.0343 14.4242V14.9757H13.1193ZM13.0255 14.9922H13.018V14.4097L13.025 14.4085C13.051 14.4065 13.0765 14.4015 13.1343 14.4015C13.3078 14.4015 13.4205 14.514 13.4208 14.6875C13.4203 14.915 13.3108 14.9925 13.1193 14.9925H13.0255V14.9922ZM13.0255 15.0437H13.1563L13.1583 15.0487C13.2823 15.2672 13.4075 15.4725 13.5475 15.6607C13.605 15.6607 13.6675 15.6532 13.726 15.6532C13.7868 15.6532 13.846 15.6597 13.905 15.6607V15.619C13.815 15.608 13.7735 15.5815 13.7218 15.5022L13.3908 15.0072L13.3998 15.0027C13.5485 14.9442 13.659 14.8427 13.659 14.6757C13.659 14.4112 13.4535 14.35 13.214 14.3487C13.114 14.3487 13.0223 14.3562 12.9083 14.3562C12.7958 14.3562 12.6833 14.3487 12.6213 14.3487V14.3895H12.6473C12.7073 14.3895 12.7908 14.3987 12.7908 14.542V15.5087C12.7908 15.585 12.7195 15.6195 12.6473 15.6197H12.6213V15.6597C12.713 15.6597 12.7998 15.6527 12.8888 15.6527C12.995 15.6527 13.1025 15.6602 13.2075 15.6602V15.6202H13.1818C13.095 15.6197 13.018 15.6095 13.018 15.4592V15.0435H13.0255V15.0437ZM13.913 15.6767C13.8488 15.6767 13.788 15.6697 13.7255 15.6697C13.668 15.6697 13.607 15.6767 13.541 15.674C13.395 15.4825 13.2698 15.2782 13.1468 15.061H13.0343V15.4597C13.0363 15.6022 13.0935 15.6015 13.1818 15.6035H13.2248V15.6775H13.216C13.1073 15.6775 12.9968 15.67 12.8885 15.67C12.798 15.67 12.708 15.6775 12.6128 15.6775H12.6045V15.6035H12.6465C12.7153 15.603 12.7733 15.5735 12.774 15.5095V14.542C12.7723 14.407 12.7065 14.4077 12.6465 14.4057H12.604V14.3325H12.6125C12.6745 14.3325 12.7915 14.34 12.9075 14.34C13.0213 14.34 13.1125 14.3325 13.2138 14.3325C13.4538 14.3332 13.6748 14.3992 13.6753 14.676C13.6753 14.8472 13.5615 14.9547 13.4153 15.0145L13.7345 15.493C13.7878 15.572 13.8213 15.592 13.9138 15.603L13.9208 15.6042V15.6767H13.9125H13.913ZM15.205 15.2942L15.2083 15.2902V14.577C15.2083 14.421 15.0995 14.398 15.0428 14.398H15.0013V14.3412C15.0903 14.3412 15.178 14.3487 15.2678 14.3487C15.3458 14.3487 15.4233 14.3412 15.502 14.3412V14.3982H15.4738C15.3938 14.3982 15.3043 14.4137 15.3043 14.6402V15.5062C15.3043 15.573 15.3063 15.6387 15.3153 15.6987H15.2428L14.2633 14.6062V15.3902C14.2633 15.556 14.2953 15.6127 14.4423 15.6127H14.4748V15.6702C14.393 15.6702 14.3108 15.6627 14.229 15.6627C14.1433 15.6627 14.0558 15.6702 13.9705 15.6702V15.6127H13.9968C14.1288 15.6127 14.1688 15.5237 14.1688 15.3712V14.57C14.1688 14.4637 14.0813 14.3987 13.9955 14.3987H13.9705V14.3417C14.0423 14.3417 14.1165 14.3492 14.1888 14.3492C14.2458 14.3492 14.3008 14.3417 14.3583 14.3417L15.2058 15.295L15.205 15.2942Z" fill="white"/>
<path d="M15.1999 15.29L15.1982 15.2883L15.1997 15.2903L15.1999 15.29ZM15.2049 15.2943L15.2104 15.2888L15.2047 15.2943H15.2049ZM15.2424 15.6893H15.3054C15.2969 15.6325 15.2949 15.5693 15.2949 15.5058V14.6395C15.2954 14.412 15.3917 14.3905 15.4734 14.39H15.4934V14.3493C15.4184 14.3493 15.3434 14.3568 15.2677 14.3568C15.1802 14.3568 15.0957 14.3493 15.0102 14.3493V14.39H15.0432C15.1019 14.3905 15.2172 14.416 15.2172 14.577L15.2139 15.2965L15.2109 15.3L15.2052 15.306L14.3577 14.349C14.3014 14.349 14.2464 14.3565 14.1884 14.3565C14.1184 14.3565 14.0469 14.349 13.9777 14.349V14.3898H13.9944C14.0839 14.3898 14.1759 14.4573 14.1759 14.5688V15.3698C14.1759 15.5223 14.1329 15.6198 13.9959 15.6203H13.9777V15.6603C14.0602 15.6603 14.1444 15.6528 14.2282 15.6528C14.3082 15.6528 14.3872 15.6603 14.4664 15.6603V15.6203H14.4419C14.2919 15.6203 14.2544 15.5548 14.2539 15.389V14.584L15.2429 15.689L15.2424 15.6893ZM15.3149 15.7058L15.2367 15.7033L14.2712 14.6265V15.389C14.2737 15.555 14.2979 15.6015 14.4422 15.6035H14.4822V15.677H14.4737C14.3917 15.677 14.3099 15.6695 14.2282 15.6695C14.1432 15.6695 14.0557 15.677 13.9702 15.677H13.9612V15.6035H13.9964C14.1219 15.603 14.1582 15.5225 14.1599 15.37V14.569C14.1594 14.468 14.0762 14.4065 13.9949 14.4065H13.9614V14.3325H13.9704C14.0429 14.3325 14.1169 14.34 14.1887 14.34C14.2452 14.34 14.2997 14.3325 14.3637 14.335L15.2002 15.2775V14.5768C15.2002 14.4255 15.0989 14.4068 15.0434 14.406H14.9927V14.3325H15.0012C15.0907 14.3325 15.1787 14.34 15.2677 14.34C15.3452 14.34 15.4232 14.3325 15.5014 14.3325H15.5104V14.406H15.4739C15.3949 14.4085 15.3139 14.4153 15.3122 14.6395V15.5058C15.3122 15.5725 15.3139 15.6383 15.3232 15.6965L15.3242 15.706H15.3152L15.3149 15.7058ZM16.0857 14.554H16.0817L15.9047 15.0928H16.2597L16.0854 14.5543L16.0857 14.554ZM15.8074 15.3965C15.7887 15.4615 15.7649 15.5115 15.7649 15.5455C15.7649 15.603 15.8449 15.6123 15.9079 15.6123H15.9294V15.6693C15.8527 15.6643 15.7749 15.6618 15.6982 15.6618C15.6302 15.6618 15.5622 15.6648 15.4932 15.6693V15.6118H15.5049C15.5787 15.6118 15.6424 15.568 15.6699 15.488L15.9749 14.615C15.9999 14.545 16.0342 14.45 16.0457 14.3793C16.1064 14.3583 16.1822 14.3205 16.2182 14.2975C16.2242 14.296 16.2282 14.2938 16.2332 14.2938C16.2389 14.2938 16.2432 14.2938 16.2469 14.2995C16.2524 14.3145 16.2579 14.332 16.2644 14.347L16.6144 15.342C16.6369 15.4088 16.6599 15.4785 16.6844 15.5363C16.7069 15.5895 16.7469 15.612 16.8104 15.612H16.8214V15.6695C16.7364 15.6645 16.6504 15.6615 16.5589 15.6615C16.4659 15.6615 16.3704 15.6648 16.2732 15.669V15.612H16.2944C16.3379 15.612 16.4127 15.6045 16.4127 15.557C16.4127 15.532 16.3962 15.4805 16.3742 15.4195L16.3002 15.199H15.8684L15.8077 15.3965H15.8074Z" fill="white"/>
<path d="M16.0774 14.5567L16.0819 14.5552L16.0769 14.557L16.0774 14.5567ZM15.9156 15.0842H16.2491L16.0836 14.5747L15.9156 15.084V15.0842ZM15.8926 15.1007L16.0751 14.5457H16.0859V14.5537L16.0839 14.5542L16.0859 14.5537V14.5455H16.0909L16.2721 15.1005H15.8924L15.8926 15.1007ZM16.2821 15.6607C16.3759 15.657 16.4691 15.6532 16.5591 15.6532C16.6476 15.6532 16.7306 15.6572 16.8141 15.6607V15.6207H16.8109C16.7454 15.6212 16.7009 15.5957 16.6774 15.5395C16.6524 15.482 16.6289 15.4115 16.6064 15.3445L16.2564 14.3495C16.2509 14.3345 16.2451 14.3175 16.2404 14.3035C16.2384 14.3017 16.2394 14.3017 16.2371 14.3017H16.2334C16.2294 14.3017 16.2276 14.3027 16.2224 14.3042C16.1859 14.3282 16.1099 14.3657 16.0531 14.3807C16.0416 14.4525 16.0069 14.5472 15.9826 14.6182L15.6784 15.4915C15.6489 15.5745 15.5826 15.621 15.5054 15.6207H15.5021V15.6607C15.5679 15.6572 15.6336 15.6537 15.6996 15.6537C15.7731 15.6537 15.8484 15.6575 15.9206 15.6607V15.6207H15.9089C15.8464 15.62 15.7604 15.6132 15.7579 15.5457C15.7579 15.5082 15.7811 15.4595 15.7994 15.395L15.8079 15.3975L15.7994 15.395L15.8624 15.1915H16.3061L16.3824 15.4177C16.4034 15.479 16.4214 15.5295 16.4214 15.5582C16.4181 15.6162 16.3381 15.6202 16.2946 15.6212H16.2821V15.6607ZM16.8214 15.677C16.7364 15.6737 16.6501 15.6695 16.5589 15.6695C16.4664 15.6695 16.3714 15.674 16.2739 15.677L16.2656 15.678V15.603H16.2944C16.3389 15.603 16.4036 15.5935 16.4039 15.5572C16.4044 15.5347 16.3876 15.4822 16.3664 15.4222L16.2939 15.2072H15.8744L15.8156 15.3992C15.7961 15.4642 15.7731 15.5142 15.7731 15.5452C15.7736 15.5917 15.8449 15.6027 15.9081 15.6027H15.9376V15.6777L15.9286 15.6767C15.8529 15.6735 15.7746 15.6692 15.6986 15.6692C15.6311 15.6692 15.5624 15.6737 15.4941 15.6767L15.4854 15.6777V15.603H15.5054C15.5761 15.603 15.6354 15.563 15.6624 15.4855L15.9674 14.6122C15.9924 14.5415 16.0261 14.4467 16.0434 14.3707C16.1024 14.35 16.1789 14.3122 16.2159 14.289C16.2209 14.287 16.2266 14.2845 16.2339 14.2845C16.2389 14.284 16.2489 14.2852 16.2549 14.2955C16.2599 14.311 16.2664 14.328 16.2724 14.343L16.6224 15.3387C16.6449 15.405 16.6674 15.4757 16.6924 15.5317C16.7141 15.5822 16.7499 15.6017 16.8109 15.6017H16.8301V15.677L16.8214 15.6765V15.677ZM16.9049 14.436C16.7629 14.436 16.7566 14.47 16.7284 14.609H16.6709C16.6784 14.5555 16.6884 14.5025 16.6946 14.4472C16.7021 14.3935 16.7046 14.3407 16.7046 14.2855H16.7514C16.7664 14.343 16.8146 14.3405 16.8654 14.3405H17.8479C17.8989 14.3405 17.9464 14.3387 17.9496 14.2817L17.9956 14.2892C17.9881 14.3407 17.9806 14.3917 17.9751 14.4432C17.9711 14.4947 17.9711 14.5457 17.9711 14.5972L17.9136 14.6185C17.9104 14.5485 17.9011 14.4355 17.7736 14.4355H17.4611V15.448C17.4611 15.5947 17.5276 15.6115 17.6186 15.6115H17.6554V15.669C17.5811 15.669 17.4479 15.661 17.3454 15.661C17.2309 15.661 17.0979 15.6685 17.0236 15.6685V15.6115H17.0596C17.1646 15.6115 17.2176 15.602 17.2176 15.4515V14.4352H16.9051L16.9049 14.436Z" fill="white"/>
<path d="M17.6549 15.677C17.5804 15.677 17.4469 15.67 17.3449 15.67C17.2311 15.67 17.0981 15.677 17.0234 15.677H17.0149V15.6035H17.0594C17.1644 15.6015 17.2064 15.5997 17.2094 15.4525L17.2089 14.4442H16.9054V14.428H17.2259V15.453C17.2259 15.6055 17.1641 15.6205 17.0594 15.6205H17.0319V15.6612C17.1069 15.6607 17.2349 15.6537 17.3451 15.6537C17.4451 15.6537 17.5719 15.6607 17.6471 15.6612V15.6207H17.6196C17.5279 15.6207 17.4541 15.5982 17.4534 15.449V14.428H17.7739C17.9014 14.4285 17.9179 14.537 17.9219 14.6072L17.9631 14.5922C17.9631 14.5422 17.9636 14.4927 17.9674 14.4427C17.9724 14.3937 17.9799 14.3452 17.9859 14.2965L17.9576 14.2915C17.9489 14.347 17.8956 14.3495 17.8484 14.349H16.8559C16.8119 14.349 16.7634 14.347 16.7459 14.2935H16.7144C16.7144 14.346 16.7106 14.3972 16.7034 14.4477C16.6979 14.5002 16.6889 14.5507 16.6814 14.6007H16.7221C16.7471 14.4682 16.7641 14.425 16.9059 14.4272V14.4435C16.7651 14.446 16.7684 14.4695 16.7371 14.6105L16.7361 14.617H16.6619L16.6636 14.6075C16.6711 14.5535 16.6804 14.5005 16.6861 14.4455C16.6936 14.3925 16.6974 14.3397 16.6974 14.285V14.277H16.7579L16.7591 14.2827C16.7734 14.3307 16.8074 14.331 16.8559 14.3317H17.8484C17.9004 14.3307 17.9391 14.33 17.9424 14.2805L17.9429 14.2715L17.9511 14.273L18.0061 14.2815L18.0041 14.2895C17.9961 14.3407 17.9891 14.392 17.9831 14.4427C17.9796 14.4937 17.9796 14.5452 17.9796 14.5962V14.602L17.9736 14.6045L17.9061 14.6285V14.6172C17.9011 14.5462 17.8941 14.4422 17.7736 14.4422H17.4699V15.4472C17.4719 15.5902 17.5286 15.5997 17.6194 15.6017H17.6639V15.6767H17.6551L17.6549 15.677ZM18.0659 15.612H18.0926C18.1611 15.612 18.2334 15.6025 18.2334 15.5032V14.5067C18.2334 14.4077 18.1609 14.3977 18.0929 14.3977H18.0664V14.341C18.1406 14.341 18.2546 14.3485 18.3479 14.3485C18.4429 14.3485 18.5571 14.341 18.6469 14.341V14.398H18.6204C18.5514 14.398 18.4791 14.408 18.4791 14.5072V15.5037C18.4791 15.6027 18.5516 15.6125 18.6204 15.6125H18.6469V15.67C18.5551 15.67 18.4419 15.662 18.3464 15.662C18.2526 15.662 18.1406 15.6695 18.0664 15.6695V15.6125L18.0659 15.612Z" fill="white"/>
<path d="M18.6379 15.6607V15.6207H18.6199C18.5514 15.6207 18.4704 15.609 18.4704 15.5032V14.5075C18.4704 14.4025 18.5511 14.3905 18.6199 14.3905H18.6379V14.3497C18.5496 14.3497 18.4396 14.3572 18.3474 14.3572C18.2574 14.3572 18.1481 14.3497 18.0739 14.3497V14.3905H18.0926C18.1601 14.3905 18.2419 14.4022 18.2419 14.5075V15.504C18.2419 15.6095 18.1604 15.621 18.0929 15.621H18.0744V15.661C18.1481 15.6605 18.2551 15.654 18.3464 15.654C18.4381 15.654 18.5481 15.661 18.6384 15.6615L18.6379 15.6607ZM18.6469 15.6775C18.5544 15.6775 18.4406 15.67 18.3464 15.67C18.2531 15.67 18.1414 15.6775 18.0664 15.6775H18.0579V15.6037H18.0924C18.1609 15.6027 18.2241 15.597 18.2249 15.5037V14.5075C18.2241 14.4145 18.1609 14.4082 18.0924 14.4067H18.0574V14.3335H18.0656C18.1406 14.3335 18.2544 14.3402 18.3471 14.3402C18.4416 14.3402 18.5556 14.3337 18.6459 14.3337H18.6534V14.4065H18.6194C18.5494 14.4082 18.4869 14.4145 18.4864 14.5072V15.5035C18.4869 15.5967 18.5489 15.6025 18.6189 15.6035H18.6539V15.6775H18.6459H18.6469ZM19.4339 15.614C19.8034 15.614 19.8674 15.2882 19.8674 15.0115C19.8674 14.733 19.7174 14.3965 19.4016 14.3965C19.0686 14.3965 18.9691 14.6932 18.9691 14.9477C18.9696 15.2885 19.1256 15.6142 19.4341 15.6142L19.4339 15.614ZM19.4051 14.3127C19.8109 14.3127 20.1339 14.5642 20.1339 14.9695C20.1339 15.407 19.8204 15.698 19.4154 15.698C19.0121 15.698 18.7034 15.4242 18.7034 15.0155C18.7034 14.6195 19.0101 14.313 19.4059 14.313" fill="white"/>
<path d="M18.9616 14.9475C18.9621 14.6915 19.0616 14.3875 19.4021 14.3875C19.7246 14.3888 19.8756 14.7315 19.8763 15.0113C19.8753 15.2883 19.8103 15.6218 19.4338 15.6218V15.606C19.7958 15.6055 19.8588 15.2885 19.8596 15.011C19.8596 14.7353 19.7106 14.4048 19.4021 14.4043C19.0746 14.4048 18.9788 14.6943 18.9778 14.9478C18.9786 15.2868 19.1328 15.6053 19.4343 15.6063V15.6218C19.1186 15.6218 18.9623 15.2905 18.9618 14.948L18.9616 14.9475ZM18.6951 15.0155C18.6951 14.6148 19.0051 14.3055 19.4051 14.3045V14.3213C19.0143 14.3213 18.7113 14.6238 18.7113 15.015C18.7118 15.4195 19.0153 15.6893 19.4148 15.6895C19.8161 15.6895 20.1256 15.4025 20.1261 14.969C20.1261 14.569 19.8078 14.3215 19.4051 14.321V14.3045C19.8141 14.3053 20.1413 14.5595 20.1426 14.9695C20.1418 15.412 19.8241 15.7055 19.4151 15.7063C19.0076 15.7055 18.6951 15.4288 18.6951 15.0153V15.0155ZM21.4171 15.2943L21.4211 15.2903V14.577C21.4211 14.421 21.3118 14.398 21.2546 14.398H21.2138V14.3413C21.3026 14.3413 21.3901 14.3488 21.4796 14.3488C21.5576 14.3488 21.6361 14.3413 21.7141 14.3413V14.3983H21.6851C21.6051 14.3983 21.5156 14.4138 21.5156 14.6403V15.5063C21.5156 15.573 21.5171 15.6388 21.5271 15.6988H21.4546L20.4746 14.6063V15.3903C20.4746 15.556 20.5066 15.6128 20.6536 15.6128H20.6861V15.6703C20.6043 15.6703 20.5226 15.6628 20.4411 15.6628C20.3546 15.6628 20.2676 15.6703 20.1811 15.6703V15.6128H20.2086C20.3401 15.6128 20.3796 15.5238 20.3796 15.3713V14.57C20.3796 14.4638 20.2921 14.3988 20.2063 14.3988H20.1813V14.3418C20.2538 14.3418 20.3278 14.3493 20.4006 14.3493C20.4576 14.3493 20.5126 14.3418 20.5701 14.3418L21.4171 15.295V15.2943Z" fill="white"/>
<path d="M21.4118 15.29L21.4108 15.2883L21.4118 15.2903V15.29ZM21.4168 15.2943L21.4223 15.2888L21.4168 15.2943ZM21.4548 15.6893H21.5168C21.5088 15.6318 21.5073 15.5693 21.5073 15.5058V14.6395C21.5073 14.4108 21.6036 14.3905 21.6848 14.39H21.7048V14.3493C21.6298 14.3493 21.5548 14.3568 21.4786 14.3568C21.3923 14.3568 21.3071 14.3493 21.2211 14.3493V14.39H21.2543C21.3131 14.3905 21.4281 14.4163 21.4281 14.5775L21.4261 15.2965L21.4221 15.3L21.4166 15.306L20.5691 14.349C20.5128 14.349 20.4578 14.3565 20.3998 14.3565C20.3298 14.3565 20.2586 14.349 20.1893 14.349V14.3898H20.2056C20.2951 14.3898 20.3871 14.4573 20.3871 14.5688V15.37C20.3871 15.5225 20.3446 15.62 20.2078 15.6205H20.1891V15.6605C20.2721 15.6605 20.3566 15.653 20.4396 15.653C20.5196 15.653 20.5981 15.6605 20.6771 15.6605V15.6205H20.6521C20.5026 15.6205 20.4653 15.555 20.4653 15.3893V14.5838L21.4543 15.6893H21.4548ZM21.5268 15.7058L21.4481 15.7033L20.4826 14.6265V15.389C20.4851 15.555 20.5106 15.6015 20.6533 15.603H20.6941V15.677H20.6861C20.6041 15.677 20.5218 15.67 20.4406 15.67C20.3556 15.67 20.2681 15.677 20.1816 15.677H20.1736V15.603H20.2091C20.3341 15.603 20.3701 15.5225 20.3711 15.3705V14.569C20.3711 14.468 20.2881 14.4065 20.2061 14.4065H20.1736V14.3325H20.1811C20.2546 14.3325 20.3286 14.3393 20.4006 14.3393C20.4571 14.3393 20.5116 14.3323 20.5756 14.3343L21.4121 15.2768V14.5763C21.4116 14.4245 21.3106 14.4068 21.2546 14.4053H21.2046V14.3325H21.2133C21.3028 14.3325 21.3908 14.3395 21.4791 14.3395C21.5571 14.3395 21.6348 14.3328 21.7141 14.3328H21.7221V14.406H21.6851C21.6068 14.4085 21.5251 14.4155 21.5236 14.6395V15.5058C21.5236 15.5725 21.5256 15.6383 21.5351 15.6965L21.5366 15.706H21.5271L21.5268 15.7058ZM22.2976 14.554H22.2933L22.1163 15.0928H22.4726L22.2976 14.5543V14.554ZM22.0193 15.3965C22.0011 15.4615 21.9776 15.5115 21.9776 15.5455C21.9776 15.603 22.0576 15.6123 22.1201 15.6123H22.1413V15.6693C22.0651 15.6643 21.9868 15.6618 21.9106 15.6618C21.8426 15.6618 21.7741 15.6648 21.7056 15.6693V15.6118H21.7163C21.7913 15.6118 21.8546 15.568 21.8823 15.488L22.1873 14.615C22.2116 14.545 22.2458 14.45 22.2568 14.3793C22.3181 14.3583 22.3943 14.3205 22.4306 14.2975C22.4356 14.296 22.4396 14.2938 22.4456 14.2938C22.4511 14.2938 22.4551 14.2938 22.4586 14.2995C22.4646 14.3145 22.4706 14.332 22.4761 14.347L22.8256 15.342C22.8486 15.4088 22.8716 15.4785 22.8963 15.5363C22.9193 15.5895 22.9588 15.612 23.0221 15.612H23.0333V15.6695C22.9473 15.6645 22.8616 15.6615 22.7701 15.6615C22.6776 15.6615 22.5821 15.6648 22.4851 15.669V15.612H22.5058C22.5498 15.612 22.6241 15.6045 22.6241 15.557C22.6241 15.532 22.6071 15.4805 22.5858 15.4195L22.5116 15.1988H22.0801L22.0193 15.3968V15.3965Z" fill="white"/>
<path d="M22.29 14.5568L22.2935 14.5553L22.2898 14.557L22.29 14.5568ZM22.128 15.0843H22.4605L22.295 14.575L22.128 15.0843ZM22.105 15.1008L22.2875 14.5458H22.2975V14.5538L22.295 14.5543L22.2975 14.5538V14.5455H22.303L22.4835 15.1005H22.105V15.1008ZM22.4938 15.6608C22.5888 15.657 22.6805 15.6533 22.7708 15.6533C22.8598 15.6533 22.9425 15.6573 23.0258 15.6608L23.025 15.6208H23.022C22.9575 15.6208 22.9128 15.5958 22.8895 15.5395C22.864 15.482 22.842 15.4115 22.8188 15.3445L22.4688 14.3495C22.4633 14.3345 22.457 14.3175 22.453 14.304C22.451 14.3015 22.451 14.3015 22.45 14.3015H22.4458C22.4418 14.3015 22.4395 14.3028 22.4348 14.304C22.3978 14.3278 22.3215 14.366 22.2648 14.3808C22.2535 14.4525 22.219 14.5473 22.1943 14.6183L21.8893 15.4915C21.8605 15.5745 21.7943 15.621 21.716 15.6208H21.7135V15.6608C21.7793 15.6573 21.8445 15.6538 21.9103 15.6538C21.9845 15.6538 22.0598 15.6575 22.1328 15.6608V15.6208H22.1195C22.0575 15.62 21.9708 15.6133 21.9685 15.5458C21.969 15.5083 21.9925 15.4598 22.011 15.3948L22.0185 15.3968L22.011 15.3943L22.0743 15.191H22.5175L22.5933 15.4173C22.6148 15.4783 22.6323 15.5288 22.6323 15.5573C22.629 15.6155 22.5498 15.6198 22.506 15.6205H22.493V15.6605L22.4938 15.6608ZM23.0338 15.677C22.947 15.6738 22.8618 15.67 22.7708 15.67C22.6783 15.67 22.5828 15.674 22.4858 15.677L22.4778 15.678V15.6035H22.5068C22.5513 15.6035 22.6163 15.5935 22.6163 15.5573C22.6168 15.5348 22.6 15.4833 22.5788 15.4223L22.5063 15.2073H22.0863L22.028 15.3993C22.008 15.4643 21.9855 15.5143 21.9863 15.545C21.9863 15.592 22.0575 15.6035 22.1203 15.6035H22.1495V15.678L22.141 15.677C22.0648 15.6738 21.987 15.67 21.911 15.67C21.843 15.67 21.7748 15.674 21.706 15.677L21.6978 15.678V15.6035H21.7163C21.7875 15.603 21.8468 15.5628 21.8748 15.486L22.179 14.6123C22.2035 14.5415 22.2378 14.4468 22.254 14.3708C22.3145 14.35 22.391 14.3123 22.4278 14.289C22.4328 14.287 22.4378 14.2848 22.4453 14.2848C22.4508 14.2843 22.4603 14.2855 22.4665 14.2963C22.4715 14.3108 22.4775 14.3288 22.484 14.3438L22.8335 15.3388C22.8565 15.4053 22.8795 15.4763 22.9035 15.5323C22.9268 15.5823 22.961 15.6023 23.0215 15.6028H23.0415V15.6775L23.0333 15.677H23.0338ZM23.5133 15.4825C23.5133 15.5595 23.5665 15.5818 23.6273 15.59C23.7048 15.5955 23.7905 15.5955 23.8788 15.585C23.9588 15.5758 24.0268 15.53 24.0613 15.4825C24.0913 15.4408 24.1083 15.3875 24.1198 15.3455H24.1748C24.1543 15.4543 24.1273 15.561 24.1048 15.6695C23.9373 15.6695 23.7698 15.662 23.6023 15.662C23.4348 15.662 23.2678 15.6695 23.0998 15.6695V15.612H23.126C23.1948 15.612 23.269 15.6028 23.269 15.4845V14.507C23.269 14.408 23.1948 14.398 23.126 14.398H23.1V14.341C23.201 14.341 23.3 14.3485 23.401 14.3485C23.4985 14.3485 23.593 14.341 23.69 14.341V14.398H23.6425C23.5705 14.398 23.513 14.4 23.513 14.501V15.4828L23.5133 15.4825Z" fill="white"/>
<path d="M24.0983 15.6607C24.1203 15.5582 24.1453 15.4567 24.1658 15.354H24.1263C24.1148 15.3952 24.0975 15.4465 24.0683 15.488C24.0323 15.5367 23.962 15.5835 23.8793 15.5937C23.8293 15.5987 23.7805 15.6012 23.7338 15.6012C23.697 15.6012 23.6613 15.5997 23.6263 15.5972C23.5643 15.5902 23.5045 15.5637 23.505 15.4822V14.5005C23.505 14.3942 23.572 14.3895 23.6425 14.3895H23.682V14.3485C23.5883 14.3485 23.4963 14.356 23.4015 14.356C23.3025 14.356 23.2065 14.3485 23.1085 14.3485V14.3892H23.1268C23.1943 14.3892 23.2783 14.4007 23.2783 14.5057V15.4837C23.2783 15.6067 23.1958 15.6195 23.1268 15.6195H23.1085V15.66C23.2735 15.66 23.4378 15.6525 23.6035 15.6525C23.7685 15.6525 23.9335 15.66 24.0985 15.66L24.0983 15.6607ZM24.1053 15.6765C23.9378 15.6765 23.7703 15.6695 23.6028 15.6695C23.4353 15.6695 23.2683 15.6765 23.0998 15.6765H23.0923V15.6035H23.1265C23.1953 15.602 23.2605 15.5972 23.261 15.4845V14.5065C23.2605 14.414 23.196 14.4075 23.1265 14.4065H23.092V14.3325H23.0995C23.201 14.3325 23.3003 14.3392 23.401 14.3392C23.4978 14.3392 23.5923 14.3322 23.69 14.3322H23.6975V14.406H23.642C23.5688 14.4085 23.522 14.4047 23.521 14.501V15.4827C23.5215 15.5537 23.5685 15.5727 23.6275 15.5815C23.661 15.584 23.6963 15.5852 23.7333 15.5852C23.7798 15.5852 23.8283 15.5832 23.8773 15.5782C23.9548 15.5687 24.0215 15.524 24.0538 15.4782C24.0833 15.4382 24.1 15.3857 24.1113 15.3447L24.113 15.3385H24.185L24.1835 15.3485C24.1615 15.457 24.136 15.5635 24.1123 15.6717L24.1105 15.6777H24.105L24.1053 15.6765Z" fill="white"/>
</svg>
